<svg width="246" height="50" viewBox="0 0 246 50" fill="none" xmlns="http://www.w3.org/2000/svg">
<g clip-path="url(#clip0_43_88)">
<mask id="mask0_43_88" style="mask-type:luminance" maskUnits="userSpaceOnUse" x="0" y="0" width="246" height="50">
<path d="M246 0H0V50H246V0Z" fill="white"/>
</mask>
<g mask="url(#mask0_43_88)">
<path d="M7.82858 0.956296C6.24165 2.44623 4.84605 4.07749 4.05921 5.88075C3.25608 7.67361 3.07525 9.58286 3.46066 11.4488C3.80301 13.3233 4.66632 14.8538 6.0045 16.1317C7.32804 17.436 9.11899 18.5088 11.014 19.6591C12.8966 20.8223 14.9673 22.0835 16.6787 24.0043C18.4034 25.9103 19.4376 28.5259 19.5527 30.9911C19.7046 33.4427 19.1196 36.0139 17.7844 38.0543C16.4711 40.1153 14.6059 41.6283 12.649 42.7841C12.3787 42.944 12.0297 42.8561 11.8688 42.588C11.7244 42.348 11.7829 42.0429 11.9905 41.8674C13.6412 40.4706 15.0647 38.8453 15.904 37.0264C16.7494 35.2095 16.9678 33.2351 16.6163 31.3055C16.2881 29.3779 15.4145 27.7573 14.0261 26.4945C12.6636 25.2001 10.8663 24.1667 8.95334 23.0605C7.05444 21.9387 4.9598 20.7536 3.15863 18.8906C2.27709 17.9555 1.50075 16.8493 0.95907 15.6374C0.430371 14.4205 0.122538 13.1278 0.0300497 11.8709C-0.145816 9.36512 0.448592 6.71227 1.85717 4.66142C3.24587 2.59714 5.16631 1.12063 7.19 0.0637033C7.46249 -0.0784432 7.79876 0.0253592 7.94233 0.294863C8.06104 0.519449 8.005 0.790595 7.82858 0.956296Z" fill="#0A0B09"/>
<path d="M7.82858 0.956296C6.24165 2.44623 4.84605 4.07749 4.05921 5.88075C3.25608 7.67361 3.07525 9.58286 3.46066 11.4488C3.80301 13.3233 4.66632 14.8538 6.0045 16.1317C7.32804 17.436 9.11899 18.5088 11.014 19.6591C12.8966 20.8223 14.9673 22.0835 16.6787 24.0043C18.4034 25.9103 19.4376 28.5259 19.5527 30.9911C19.7046 33.4427 19.1196 36.0139 17.7844 38.0543C16.4711 40.1153 14.6059 41.6283 12.649 42.7841C12.3787 42.944 12.0297 42.8561 11.8688 42.588C11.7244 42.348 11.7829 42.0429 11.9905 41.8674C13.6412 40.4706 15.0647 38.8453 15.904 37.0264C16.7494 35.2095 16.9678 33.2351 16.6163 31.3055C16.2881 29.3779 15.4145 27.7573 14.0261 26.4945C12.6636 25.2001 10.8663 24.1667 8.95334 23.0605C7.05444 21.9387 4.9598 20.7536 3.15863 18.8906C2.27709 17.9555 1.50075 16.8493 0.95907 15.6374C0.430371 14.4205 0.122538 13.1278 0.0300497 11.8709C-0.145816 9.36512 0.448592 6.71227 1.85717 4.66142C3.24587 2.59714 5.16631 1.12063 7.19 0.0637033C7.46249 -0.0784432 7.79876 0.0253592 7.94233 0.294863C8.06104 0.519449 8.005 0.790595 7.82858 0.956296Z" fill="#220D3A"/>
<path d="M12.3479 0.0426602C13.7822 0.721622 15.1483 1.64872 16.3393 2.88422C16.9342 3.50375 17.4571 4.21804 17.9295 4.98821C18.3845 5.77262 18.7401 6.637 18.9985 7.54164C19.2271 8.45313 19.3704 9.39886 19.3701 10.3394C19.3508 11.2758 19.1186 15.8176 16.5933 18.0027C15.9782 18.4773 14.9804 18.2993 14.5395 17.6371C14.2168 17.152 14.2063 16.5278 14.4647 16.0417L14.497 15.9828C15.1748 14.715 17.9925 9.78668 14.7761 4.34841C13.9644 3.12277 12.9404 1.9919 11.8402 0.880476L11.8364 0.877189C11.647 0.685469 11.6368 0.364202 11.8146 0.159883C11.9551 -0.00116137 12.1707 -0.0411487 12.3479 0.0426602Z" fill="#0A0B09"/>
<path d="M12.3479 0.0426602C13.7822 0.721622 15.1483 1.64872 16.3393 2.88422C16.9342 3.50375 17.4571 4.21804 17.9295 4.98821C18.3845 5.77262 18.7401 6.637 18.9985 7.54164C19.2271 8.45313 19.3704 9.39886 19.3701 10.3394C19.3508 11.2758 19.1186 15.8176 16.5933 18.0027C15.9782 18.4773 14.9804 18.2993 14.5395 17.6371C14.2168 17.152 14.2063 16.5278 14.4647 16.0417L14.497 15.9828C15.1748 14.715 17.9925 9.78668 14.7761 4.34841C13.9644 3.12277 12.9404 1.9919 11.8402 0.880476L11.8364 0.877189C11.647 0.685469 11.6368 0.364202 11.8146 0.159883C11.9551 -0.00116137 12.1707 -0.0411487 12.3479 0.0426602Z" fill="#220D3A"/>
<path d="M7.24625 42.8208C5.81227 42.1419 4.44648 41.2142 3.25491 39.9793C2.6605 39.36 2.13705 38.6457 1.66467 37.875C1.20968 37.0909 0.854087 36.2265 0.595673 35.3219C0.367076 34.4106 0.223788 33.4644 0.224613 32.5238C0.24339 31.5874 0.475852 27.0459 3.00091 24.8611C3.6163 24.3862 4.61379 24.5642 5.0547 25.2264C5.37744 25.7115 5.38848 26.336 5.12952 26.8218L5.09721 26.8807C4.4197 28.1485 1.60172 33.0763 4.81865 38.5154C5.63033 39.7407 6.65377 40.8716 7.75452 41.983L7.75783 41.9863C7.94778 42.178 7.95716 42.4993 7.77964 42.7039C7.63939 42.8649 7.42349 42.9046 7.24625 42.8208Z" fill="#0A0B09"/>
<path d="M7.24625 42.8208C5.81227 42.1419 4.44648 41.2142 3.25491 39.9793C2.6605 39.36 2.13705 38.6457 1.66467 37.875C1.20968 37.0909 0.854087 36.2265 0.595673 35.3219C0.367076 34.4106 0.223788 33.4644 0.224613 32.5238C0.24339 31.5874 0.475852 27.0459 3.00091 24.8611C3.6163 24.3862 4.61379 24.5642 5.0547 25.2264C5.37744 25.7115 5.38848 26.336 5.12952 26.8218L5.09721 26.8807C4.4197 28.1485 1.60172 33.0763 4.81865 38.5154C5.63033 39.7407 6.65377 40.8716 7.75452 41.983L7.75783 41.9863C7.94778 42.178 7.95716 42.4993 7.77964 42.7039C7.63939 42.8649 7.42349 42.9046 7.24625 42.8208Z" fill="#220D3A"/>
<path d="M30.6492 24.4985C30.3287 24.4985 28.9817 24.4985 28.6611 24.4985C28.6611 26.7893 30.7994 28.9319 33.8145 28.9319C36.7001 28.9319 38.4745 27.2138 38.7316 25.1136C39.0311 22.7807 37.5557 21.2319 34.7976 20.5321L32.8731 20.0659C31.0131 19.6206 30.7776 18.6653 30.7776 18.0296C30.7776 16.6933 32.1036 15.8232 33.5357 15.8232C35.1397 15.8232 36.3155 16.7571 36.3155 18.2205C36.6576 18.2205 37.9621 18.2205 38.3042 18.2205C38.3042 15.5898 36.2512 13.9355 33.5575 13.9355C31.0556 13.9355 28.7898 15.5898 28.7898 18.0501C28.7898 19.3234 29.2597 21.0837 32.3816 21.8684L34.2841 22.3353C35.6096 22.6317 36.9138 23.3742 36.7854 24.9438C36.6151 26.0476 35.6955 27.0864 33.8145 27.0864C31.9543 27.0864 30.6707 25.7718 30.6492 24.4985Z" fill="#0A0B09"/>
<path d="M30.6492 24.4985C30.3287 24.4985 28.9817 24.4985 28.6611 24.4985C28.6611 26.7893 30.7994 28.9319 33.8145 28.9319C36.7001 28.9319 38.4745 27.2138 38.7316 25.1136C39.0311 22.7807 37.5557 21.2319 34.7976 20.5321L32.8731 20.0659C31.0131 19.6206 30.7776 18.6653 30.7776 18.0296C30.7776 16.6933 32.1036 15.8232 33.5357 15.8232C35.1397 15.8232 36.3155 16.7571 36.3155 18.2205C36.6576 18.2205 37.9621 18.2205 38.3042 18.2205C38.3042 15.5898 36.2512 13.9355 33.5575 13.9355C31.0556 13.9355 28.7898 15.5898 28.7898 18.0501C28.7898 19.3234 29.2597 21.0837 32.3816 21.8684L34.2841 22.3353C35.6096 22.6317 36.9138 23.3742 36.7854 24.9438C36.6151 26.0476 35.6955 27.0864 33.8145 27.0864C31.9543 27.0864 30.6707 25.7718 30.6492 24.4985Z" fill="#220D3A"/>
<path d="M41.2305 15.1657C41.2305 15.8868 41.8506 16.4172 42.5772 16.4172C43.3251 16.4172 43.9242 15.8868 43.9242 15.1657C43.9242 14.4445 43.3251 13.9146 42.5772 13.9146C41.8506 13.9146 41.2305 14.4445 41.2305 15.1657ZM41.6153 28.7189H43.5388V18.8141H41.6153V28.7189Z" fill="#0A0B09"/>
<path d="M41.2305 15.1657C41.2305 15.8868 41.8506 16.4172 42.5772 16.4172C43.3251 16.4172 43.9242 15.8868 43.9242 15.1657C43.9242 14.4445 43.3251 13.9146 42.5772 13.9146C41.8506 13.9146 41.2305 14.4445 41.2305 15.1657ZM41.6153 28.7189H43.5388V18.8141H41.6153V28.7189Z" fill="#220D3A"/>
<path d="M48.7837 23.374C48.7837 21.2746 50.1951 20.4897 51.6061 20.4897C52.9741 20.4897 53.8084 21.4658 53.8084 23.1198V28.7188C54.1072 28.7188 55.4332 28.7188 55.7537 28.7188V22.9923C55.7537 20.2138 54.3852 18.6021 51.9051 18.6021C50.8149 18.6021 49.3823 19.1104 48.7837 20.2985V18.8139H46.8379V28.7188H48.7837V23.374Z" fill="#0A0B09"/>
<path d="M48.7837 23.374C48.7837 21.2746 50.1951 20.4897 51.6061 20.4897C52.9741 20.4897 53.8084 21.4658 53.8084 23.1198V28.7188C54.1072 28.7188 55.4332 28.7188 55.7537 28.7188V22.9923C55.7537 20.2138 54.3852 18.6021 51.9051 18.6021C50.8149 18.6021 49.3823 19.1104 48.7837 20.2985V18.8139H46.8379V28.7188H48.7837V23.374Z" fill="#220D3A"/>
<path d="M66.8755 23.7773C66.8755 25.8766 65.1654 27.044 63.5614 27.044C61.7655 27.044 60.3119 25.792 60.3119 23.7773C60.3119 21.8472 61.7655 20.4897 63.5614 20.4897C65.3358 20.4897 66.8755 21.656 66.8755 23.7773ZM60.4828 30.1403C60.226 30.2676 59.1142 30.8828 58.8575 30.9888C59.8202 32.7282 61.5302 33.661 63.3695 33.661C66.6618 33.661 68.8208 31.8795 68.8208 27.2136V18.8139H66.897V20.3623C66.2344 19.2172 64.78 18.6021 63.3905 18.6021C60.6534 18.6021 58.3232 20.6377 58.3232 23.7987C58.3232 26.9372 60.6534 28.9316 63.3905 28.9316C64.78 28.9316 66.2979 28.2739 66.897 27.1077C66.897 27.1921 66.9185 27.256 66.9185 27.3404C66.9185 30.6281 65.5285 31.8372 63.3695 31.8372C62.2572 31.8372 61.0813 31.243 60.4828 30.1403Z" fill="#0A0B09"/>
<path d="M66.8755 23.7773C66.8755 25.8766 65.1654 27.044 63.5614 27.044C61.7655 27.044 60.3119 25.792 60.3119 23.7773C60.3119 21.8472 61.7655 20.4897 63.5614 20.4897C65.3358 20.4897 66.8755 21.656 66.8755 23.7773ZM60.4828 30.1403C60.226 30.2676 59.1142 30.8828 58.8575 30.9888C59.8202 32.7282 61.5302 33.661 63.3695 33.661C66.6618 33.661 68.8208 31.8795 68.8208 27.2136V18.8139H66.897V20.3623C66.2344 19.2172 64.78 18.6021 63.3905 18.6021C60.6534 18.6021 58.3232 20.6377 58.3232 23.7987C58.3232 26.9372 60.6534 28.9316 63.3905 28.9316C64.78 28.9316 66.2979 28.2739 66.897 27.1077C66.897 27.1921 66.9185 27.256 66.9185 27.3404C66.9185 30.6281 65.5285 31.8372 63.3695 31.8372C62.2572 31.8372 61.0813 31.243 60.4828 30.1403Z" fill="#220D3A"/>
<path d="M78.9639 24.1588C78.9639 26.2798 77.5528 27.0439 76.1415 27.0439C74.7738 27.0439 73.961 26.0678 73.961 24.413V18.814H72.0149V24.5406C71.9939 27.3189 73.3624 28.9316 75.8638 28.9316C76.9537 28.9316 78.3656 28.4224 78.9639 27.2343V28.7188H80.9092V18.814H78.9639V24.1588Z" fill="#0A0B09"/>
<path d="M78.9639 24.1588C78.9639 26.2798 77.5528 27.0439 76.1415 27.0439C74.7738 27.0439 73.961 26.0678 73.961 24.413V18.814H72.0149V24.5406C71.9939 27.3189 73.3624 28.9316 75.8638 28.9316C76.9537 28.9316 78.3656 28.4224 78.9639 27.2343V28.7188H80.9092V18.814H78.9639V24.1588Z" fill="#220D3A"/>
<path d="M84.2129 28.7191H86.1587V13.4268H84.2129V28.7191Z" fill="#0A0B09"/>
<path d="M84.2129 28.7191H86.1587V13.4268H84.2129V28.7191Z" fill="#220D3A"/>
<path d="M97.4194 23.7348C97.4194 25.8345 95.88 27.044 94.1056 27.044C92.3097 27.044 90.8561 25.6863 90.8561 23.7348C90.8561 21.762 92.3097 20.4897 94.1056 20.4897C95.7096 20.4897 97.4194 21.614 97.4194 23.7348ZM97.4412 28.7188H99.3655V18.8139H97.4412V20.2985C96.7786 19.1742 95.3242 18.6021 93.9344 18.6021C91.1982 18.6021 88.8672 20.5957 88.8672 23.7558C88.8672 26.895 91.1982 28.9316 93.9344 28.9316C95.3242 28.9316 96.7786 28.3165 97.4412 27.1922V28.7188Z" fill="#0A0B09"/>
<path d="M97.4194 23.7348C97.4194 25.8345 95.88 27.044 94.1056 27.044C92.3097 27.044 90.8561 25.6863 90.8561 23.7348C90.8561 21.762 92.3097 20.4897 94.1056 20.4897C95.7096 20.4897 97.4194 21.614 97.4194 23.7348ZM97.4412 28.7188H99.3655V18.8139H97.4412V20.2985C96.7786 19.1742 95.3242 18.6021 93.9344 18.6021C91.1982 18.6021 88.8672 20.5957 88.8672 23.7558C88.8672 26.895 91.1982 28.9316 93.9344 28.9316C95.3242 28.9316 96.7786 28.3165 97.4412 27.1922V28.7188Z" fill="#220D3A"/>
<path d="M104.621 25.1133C104.621 22.4832 105.433 20.4466 107.358 20.4466C107.764 20.4466 108.299 20.5318 108.833 20.7868L109.133 18.9838C108.854 18.7927 108.106 18.6021 107.4 18.6021C106.096 18.6021 105.134 19.3018 104.621 21.041V18.8139H102.676V28.7188H104.621V25.1133Z" fill="#0A0B09"/>
<path d="M104.621 25.1133C104.621 22.4832 105.433 20.4466 107.358 20.4466C107.764 20.4466 108.299 20.5318 108.833 20.7868L109.133 18.9838C108.854 18.7927 108.106 18.6021 107.4 18.6021C106.096 18.6021 105.134 19.3018 104.621 21.041V18.8139H102.676V28.7188H104.621V25.1133Z" fill="#220D3A"/>
<path d="M110.851 15.1657C110.851 15.8868 111.471 16.4172 112.198 16.4172C112.946 16.4172 113.545 15.8868 113.545 15.1657C113.545 14.4445 112.946 13.9146 112.198 13.9146C111.471 13.9146 110.851 14.4445 110.851 15.1657ZM111.235 28.7189H113.16V18.8141H111.235V28.7189Z" fill="#0A0B09"/>
<path d="M110.851 15.1657C110.851 15.8868 111.471 16.4172 112.198 16.4172C112.946 16.4172 113.545 15.8868 113.545 15.1657C113.545 14.4445 112.946 13.9146 112.198 13.9146C111.471 13.9146 110.851 14.4445 110.851 15.1657ZM111.235 28.7189H113.16V18.8141H111.235V28.7189Z" fill="#220D3A"/>
<path d="M119.095 18.8143V15.0815H117.149V18.8143H115.354V20.447H117.149V28.7191H119.095V20.447H121.211V18.8143H119.095Z" fill="#0A0B09"/>
<path d="M119.095 18.8143V15.0815H117.149V18.8143H115.354V20.447H117.149V28.7191H119.095V20.447H121.211V18.8143H119.095Z" fill="#220D3A"/>
<path d="M126.77 33.5345L132.971 18.814H130.897L127.904 25.9835L124.911 18.814H122.837L126.834 28.4224L124.739 33.5345H126.77Z" fill="#0A0B09"/>
<path d="M126.77 33.5345L132.971 18.814H130.897L127.904 25.9835L124.911 18.814H122.837L126.834 28.4224L124.739 33.5345H126.77Z" fill="#220D3A"/>
<path d="M145.902 28.7192V14.1055H143.913V25.0291L137.264 14.1055H135.297V28.7192H137.285V17.7109L143.998 28.7192H145.902Z" fill="#0A0B09"/>
<path d="M145.902 28.7192V14.1055H143.913V25.0291L137.264 14.1055H135.297V28.7192H137.285V17.7109L143.998 28.7192H145.902Z" fill="#220D3A"/>
<path d="M150.062 14.1055V28.7192H159V26.874H152.051V22.4628H157.931V20.6174H152.051V15.9506H158.786V14.1055H150.062Z" fill="#0A0B09"/>
<path d="M150.062 14.1055V28.7192H159V26.874H152.051V22.4628H157.931V20.6174H152.051V15.9506H158.786V14.1055H150.062Z" fill="#220D3A"/>
<path d="M160.942 14.1055V15.9723H165.411V28.7192H167.421V15.9723H171.89V14.1055H160.942Z" fill="#0A0B09"/>
<path d="M160.942 14.1055V15.9723H165.411V28.7192H167.421V15.9723H171.89V14.1055H160.942Z" fill="#220D3A"/>
<path d="M190.604 19.9701C191.499 20.2048 192.195 20.6521 192.694 21.3121C193.193 21.9574 193.442 22.7714 193.442 23.7541C193.442 25.1181 192.995 26.1668 192.1 26.9001C191.205 27.6334 189.937 28.0001 188.294 28.0001H182.024V12.3361H188.074C189.673 12.3361 190.905 12.6954 191.77 13.4141C192.635 14.1181 193.068 15.1301 193.068 16.4501C193.068 17.3008 192.848 18.0268 192.408 18.6281C191.983 19.2294 191.381 19.6768 190.604 19.9701ZM183.366 19.4421H187.876C189.137 19.4421 190.091 19.1854 190.736 18.6721C191.381 18.1588 191.704 17.4108 191.704 16.4281C191.704 14.4774 190.428 13.5021 187.876 13.5021H183.366V19.4421ZM188.206 26.8341C189.526 26.8341 190.494 26.5848 191.11 26.0861C191.741 25.5874 192.056 24.8248 192.056 23.7981C192.056 21.7008 190.773 20.6521 188.206 20.6521H183.366V26.8341H188.206ZM201.445 16.7141C201.812 16.7141 202.135 16.7434 202.413 16.8021L202.347 18.0121C202.069 17.9534 201.731 17.9241 201.335 17.9241C200.221 17.9241 199.385 18.2834 198.827 19.0021C198.285 19.7061 198.013 20.5494 198.013 21.5321V28.0001H196.693V20.0361C196.693 18.8921 196.635 17.8728 196.517 16.9781H197.793L197.969 19.0241C198.248 18.2761 198.695 17.7041 199.311 17.3081C199.942 16.9121 200.653 16.7141 201.445 16.7141ZM204.363 28.0001V16.9781H205.683V28.0001H204.363ZM204.165 12.4241H205.947V14.1401H204.165V12.4241ZM218.719 11.8081V28.0001H217.377V25.8881C217.054 26.6214 216.563 27.1861 215.903 27.5821C215.258 27.9634 214.48 28.1541 213.571 28.1541C212.603 28.1541 211.745 27.9194 210.997 27.4501C210.264 26.9661 209.692 26.2914 209.281 25.4261C208.87 24.5461 208.665 23.5341 208.665 22.3901C208.665 21.2461 208.863 20.2488 209.259 19.3981C209.67 18.5328 210.242 17.8728 210.975 17.4181C211.723 16.9488 212.588 16.7141 213.571 16.7141C214.466 16.7141 215.236 16.9048 215.881 17.2861C216.541 17.6674 217.04 18.2248 217.377 18.9581V11.8081H218.719ZM213.747 26.9661C214.906 26.9661 215.8 26.5701 216.431 25.7781C217.062 24.9861 217.377 23.8714 217.377 22.4341C217.377 20.9968 217.062 19.8821 216.431 19.0901C215.8 18.2834 214.913 17.8801 213.769 17.8801C212.596 17.8801 211.686 18.2761 211.041 19.0681C210.396 19.8601 210.073 20.9674 210.073 22.3901C210.073 23.8274 210.396 24.9494 211.041 25.7561C211.686 26.5628 212.588 26.9661 213.747 26.9661ZM231.805 16.9781V28.0441C231.805 29.6428 231.409 30.8528 230.617 31.6741C229.825 32.4954 228.659 32.9061 227.119 32.9061C225.476 32.9061 224.046 32.5101 222.829 31.7181L223.093 30.5521C223.812 30.9774 224.472 31.2781 225.073 31.4541C225.674 31.6301 226.364 31.7181 227.141 31.7181C228.241 31.7181 229.07 31.4174 229.627 30.8161C230.199 30.2148 230.485 29.3348 230.485 28.1761V25.3381C230.148 26.0861 229.649 26.6654 228.989 27.0761C228.329 27.4721 227.537 27.6701 226.613 27.6701C225.645 27.6701 224.787 27.4428 224.039 26.9881C223.291 26.5188 222.704 25.8734 222.279 25.0521C221.868 24.2161 221.663 23.2628 221.663 22.1921C221.663 21.1068 221.868 20.1534 222.279 19.3321C222.704 18.4961 223.291 17.8508 224.039 17.3961C224.787 16.9414 225.645 16.7141 226.613 16.7141C227.537 16.7141 228.322 16.9048 228.967 17.2861C229.627 17.6674 230.126 18.2248 230.463 18.9581V16.9781H231.805ZM226.789 26.4601C227.933 26.4601 228.828 26.0788 229.473 25.3161C230.133 24.5534 230.463 23.5121 230.463 22.1921C230.463 20.8574 230.133 19.8088 229.473 19.0461C228.828 18.2688 227.933 17.8801 226.789 17.8801C225.63 17.8801 224.721 18.2688 224.061 19.0461C223.401 19.8088 223.071 20.8574 223.071 22.1921C223.071 23.5268 223.401 24.5754 224.061 25.3381C224.721 26.0861 225.63 26.4601 226.789 26.4601ZM236.155 22.3241V22.3901C236.155 23.8714 236.492 25.0081 237.167 25.8001C237.856 26.5774 238.854 26.9661 240.159 26.9661C241.479 26.9661 242.689 26.5114 243.789 25.6021L244.317 26.6581C243.833 27.1128 243.217 27.4794 242.469 27.7581C241.721 28.0221 240.951 28.1541 240.159 28.1541C238.487 28.1541 237.167 27.6481 236.199 26.6361C235.231 25.6241 234.747 24.2308 234.747 22.4561C234.747 21.3268 234.96 20.3294 235.385 19.4641C235.825 18.5841 236.434 17.9094 237.211 17.4401C237.988 16.9561 238.883 16.7141 239.895 16.7141C241.347 16.7141 242.476 17.1834 243.283 18.1221C244.104 19.0608 244.515 20.3661 244.515 22.0381V22.3241H236.155ZM239.895 17.8141C238.883 17.8141 238.062 18.1221 237.431 18.7381C236.8 19.3394 236.404 20.1901 236.243 21.2901H243.239C243.151 20.1608 242.821 19.3028 242.249 18.7161C241.677 18.1148 240.892 17.8141 239.895 17.8141Z" fill="#212121"/>
<path d="M178 44.8082V43.6602H182.074V44.8082H178Z" fill="#1E1E1E"/>
<path d="M188.732 48.1118C187.77 48.1118 186.93 47.9065 186.212 47.4958C185.502 47.0758 184.956 46.4831 184.574 45.7178C184.191 44.9525 184 44.0471 184 43.0018C184 41.9658 184.191 41.0651 184.574 40.2998C184.956 39.5345 185.502 38.9465 186.212 38.5358C186.93 38.1251 187.77 37.9198 188.732 37.9198C189.413 37.9198 190.043 38.0271 190.622 38.2418C191.21 38.4471 191.704 38.7505 192.106 39.1518L191.602 40.2158C191.135 39.8331 190.673 39.5578 190.216 39.3898C189.768 39.2125 189.278 39.1238 188.746 39.1238C187.71 39.1238 186.907 39.4598 186.338 40.1318C185.778 40.8038 185.498 41.7605 185.498 43.0018C185.498 44.2525 185.778 45.2185 186.338 45.8998C186.907 46.5718 187.71 46.9078 188.746 46.9078C189.278 46.9078 189.768 46.8238 190.216 46.6558C190.673 46.4785 191.135 46.1985 191.602 45.8158L192.106 46.8798C191.704 47.2811 191.21 47.5891 190.622 47.8038C190.043 48.0091 189.413 48.1118 188.732 48.1118ZM200.111 40.9438V47.9998H198.711V46.7958C198.506 47.2158 198.198 47.5378 197.787 47.7618C197.386 47.9858 196.914 48.0978 196.373 48.0978C195.748 48.0978 195.197 47.9485 194.721 47.6498C194.254 47.3511 193.89 46.9311 193.629 46.3898C193.368 45.8391 193.237 45.1998 193.237 44.4718C193.237 43.7438 193.368 43.0998 193.629 42.5398C193.9 41.9798 194.273 41.5458 194.749 41.2378C195.225 40.9298 195.766 40.7758 196.373 40.7758C196.914 40.7758 197.386 40.8925 197.787 41.1258C198.188 41.3498 198.496 41.6718 198.711 42.0918V40.9438H200.111ZM196.709 46.9778C197.344 46.9778 197.834 46.7585 198.179 46.3198C198.534 45.8718 198.711 45.2465 198.711 44.4438C198.711 43.6318 198.534 43.0065 198.179 42.5678C197.834 42.1291 197.339 41.9098 196.695 41.9098C196.06 41.9098 195.561 42.1385 195.197 42.5958C194.842 43.0438 194.665 43.6691 194.665 44.4718C194.665 45.2651 194.842 45.8811 195.197 46.3198C195.561 46.7585 196.065 46.9778 196.709 46.9778ZM205.702 40.7758C205.917 40.7758 206.141 40.8085 206.374 40.8738L206.346 42.1618C206.094 42.0685 205.819 42.0218 205.52 42.0218C204.876 42.0218 204.391 42.2178 204.064 42.6098C203.747 42.9925 203.588 43.4778 203.588 44.0658V47.9998H202.188V42.9318C202.188 42.1945 202.151 41.5318 202.076 40.9438H203.392L203.518 42.2178C203.705 41.7511 203.994 41.3965 204.386 41.1538C204.778 40.9018 205.217 40.7758 205.702 40.7758ZM213.769 37.6958V47.9998H212.369V46.7958C212.164 47.2158 211.856 47.5378 211.445 47.7618C211.044 47.9858 210.573 48.0978 210.031 48.0978C209.425 48.0978 208.883 47.9438 208.407 47.6358C207.931 47.3278 207.558 46.8985 207.287 46.3478C207.026 45.7878 206.895 45.1438 206.895 44.4158C206.895 43.6878 207.026 43.0485 207.287 42.4978C207.549 41.9471 207.913 41.5225 208.379 41.2238C208.855 40.9251 209.406 40.7758 210.031 40.7758C210.563 40.7758 211.03 40.8878 211.431 41.1118C211.842 41.3358 212.15 41.6531 212.355 42.0638V37.6958H213.769ZM210.353 46.9778C210.997 46.9778 211.492 46.7585 211.837 46.3198C212.192 45.8718 212.369 45.2465 212.369 44.4438C212.369 43.6411 212.192 43.0205 211.837 42.5818C211.492 42.1338 211.002 41.9098 210.367 41.9098C209.723 41.9098 209.219 42.1291 208.855 42.5678C208.501 43.0065 208.323 43.6225 208.323 44.4158C208.323 45.2185 208.501 45.8485 208.855 46.3058C209.219 46.7538 209.719 46.9778 210.353 46.9778ZM222.301 40.9438V47.9998H220.901V46.7958C220.695 47.2158 220.387 47.5378 219.977 47.7618C219.575 47.9858 219.104 48.0978 218.563 48.0978C217.937 48.0978 217.387 47.9485 216.911 47.6498C216.444 47.3511 216.08 46.9311 215.819 46.3898C215.557 45.8391 215.427 45.1998 215.427 44.4718C215.427 43.7438 215.557 43.0998 215.819 42.5398C216.089 41.9798 216.463 41.5458 216.939 41.2378C217.415 40.9298 217.956 40.7758 218.563 40.7758C219.104 40.7758 219.575 40.8925 219.977 41.1258C220.378 41.3498 220.686 41.6718 220.901 42.0918V40.9438H222.301ZM218.899 46.9778C219.533 46.9778 220.023 46.7585 220.369 46.3198C220.723 45.8718 220.901 45.2465 220.901 44.4438C220.901 43.6318 220.723 43.0065 220.369 42.5678C220.023 42.1291 219.529 41.9098 218.885 41.9098C218.25 41.9098 217.751 42.1385 217.387 42.5958C217.032 43.0438 216.855 43.6691 216.855 44.4718C216.855 45.2651 217.032 45.8811 217.387 46.3198C217.751 46.7585 218.255 46.9778 218.899 46.9778ZM228.13 40.7758C229.819 40.7758 230.664 41.7185 230.664 43.6038V47.9998H229.25V43.6878C229.25 43.0718 229.128 42.6238 228.886 42.3438C228.652 42.0638 228.274 41.9238 227.752 41.9238C227.154 41.9238 226.674 42.1105 226.31 42.4838C225.955 42.8571 225.778 43.3565 225.778 43.9818V47.9998H224.378V42.9318C224.378 42.1945 224.34 41.5318 224.266 40.9438H225.582L225.708 42.1618C225.932 41.7138 226.254 41.3731 226.674 41.1398C227.103 40.8971 227.588 40.7758 228.13 40.7758ZM235.715 48.0978C235.024 48.0978 234.417 47.9485 233.895 47.6498C233.372 47.3511 232.966 46.9265 232.677 46.3758C232.397 45.8251 232.257 45.1811 232.257 44.4438C232.257 43.7065 232.397 43.0625 232.677 42.5118C232.966 41.9518 233.372 41.5225 233.895 41.2238C234.417 40.9251 235.024 40.7758 235.715 40.7758C236.396 40.7758 236.998 40.9251 237.521 41.2238C238.043 41.5225 238.445 41.9518 238.725 42.5118C239.014 43.0625 239.159 43.7065 239.159 44.4438C239.159 45.1811 239.014 45.8251 238.725 46.3758C238.445 46.9265 238.043 47.3511 237.521 47.6498C236.998 47.9485 236.396 48.0978 235.715 48.0978ZM235.701 46.9778C236.354 46.9778 236.853 46.7631 237.199 46.3338C237.544 45.9045 237.717 45.2745 237.717 44.4438C237.717 43.6318 237.539 43.0065 237.185 42.5678C236.839 42.1291 236.349 41.9098 235.715 41.9098C235.071 41.9098 234.571 42.1291 234.217 42.5678C233.862 43.0065 233.685 43.6318 233.685 44.4438C233.685 45.2745 233.857 45.9045 234.203 46.3338C234.557 46.7631 235.057 46.9778 235.701 46.9778Z" fill="#220D3A"/>
</g>
<path d="M114.162 48V38.032H120.63V39.208H115.59V42.344H120.35V43.52H115.59V46.824H120.63V48H114.162ZM124.141 42.036V45.578C124.141 46.0633 124.244 46.4087 124.449 46.614C124.664 46.81 124.958 46.908 125.331 46.908C125.574 46.908 125.821 46.8707 126.073 46.796V47.944C125.765 48.0467 125.415 48.098 125.023 48.098C124.295 48.098 123.731 47.8927 123.329 47.482C122.928 47.0713 122.727 46.474 122.727 45.69V42.036H121.355V40.944H122.727V39.18L124.141 38.69V40.944H126.087V42.036H124.141ZM131.145 40.776C132.835 40.776 133.679 41.7187 133.679 43.604V48H132.265V43.688C132.265 43.072 132.144 42.624 131.901 42.344C131.668 42.064 131.29 41.924 130.767 41.924C130.17 41.924 129.689 42.1107 129.325 42.484C128.971 42.8573 128.793 43.3567 128.793 43.982V48H127.393V37.696H128.793V42.036C129.027 41.6253 129.349 41.3127 129.759 41.098C130.17 40.8833 130.632 40.776 131.145 40.776ZM141.712 44.5H136.672C136.719 46.152 137.47 46.978 138.926 46.978C139.738 46.978 140.48 46.712 141.152 46.18L141.586 47.188C141.269 47.468 140.863 47.692 140.368 47.86C139.883 48.0187 139.393 48.098 138.898 48.098C137.769 48.098 136.882 47.776 136.238 47.132C135.594 46.4787 135.272 45.5873 135.272 44.458C135.272 43.7393 135.412 43.1 135.692 42.54C135.982 41.98 136.383 41.546 136.896 41.238C137.41 40.93 137.993 40.776 138.646 40.776C139.598 40.776 140.345 41.084 140.886 41.7C141.437 42.316 141.712 43.17 141.712 44.262V44.5ZM138.674 41.826C138.142 41.826 137.708 41.9847 137.372 42.302C137.036 42.6193 136.822 43.072 136.728 43.66H140.466C140.41 43.0627 140.228 42.61 139.92 42.302C139.612 41.9847 139.197 41.826 138.674 41.826ZM146.849 40.776C147.063 40.776 147.287 40.8087 147.521 40.874L147.493 42.162C147.241 42.0687 146.965 42.022 146.667 42.022C146.023 42.022 145.537 42.218 145.211 42.61C144.893 42.9927 144.735 43.478 144.735 44.066V48H143.335V42.932C143.335 42.1947 143.297 41.532 143.223 40.944H144.539L144.665 42.218C144.851 41.7513 145.141 41.3967 145.533 41.154C145.925 40.902 146.363 40.776 146.849 40.776ZM154.482 44.5H149.442C149.488 46.152 150.24 46.978 151.696 46.978C152.508 46.978 153.25 46.712 153.922 46.18L154.356 47.188C154.038 47.468 153.632 47.692 153.138 47.86C152.652 48.0187 152.162 48.098 151.668 48.098C150.538 48.098 149.652 47.776 149.008 47.132C148.364 46.4787 148.042 45.5873 148.042 44.458C148.042 43.7393 148.182 43.1 148.462 42.54C148.751 41.98 149.152 41.546 149.666 41.238C150.179 40.93 150.762 40.776 151.416 40.776C152.368 40.776 153.114 41.084 153.656 41.7C154.206 42.316 154.482 43.17 154.482 44.262V44.5ZM151.444 41.826C150.912 41.826 150.478 41.9847 150.142 42.302C149.806 42.6193 149.591 43.072 149.498 43.66H153.236C153.18 43.0627 152.998 42.61 152.69 42.302C152.382 41.9847 151.966 41.826 151.444 41.826ZM162.236 40.944V48H160.864V46.824C160.64 47.2347 160.332 47.552 159.94 47.776C159.548 47.9907 159.105 48.098 158.61 48.098C156.912 48.098 156.062 47.1553 156.062 45.27V40.944H157.462V45.256C157.462 45.8347 157.579 46.264 157.812 46.544C158.055 46.8147 158.419 46.95 158.904 46.95C159.483 46.95 159.945 46.7633 160.29 46.39C160.645 46.0167 160.822 45.522 160.822 44.906V40.944H162.236ZM172.357 40.776C173.925 40.776 174.709 41.7187 174.709 43.604V48H173.295V43.674C173.295 43.0673 173.188 42.624 172.973 42.344C172.768 42.064 172.432 41.924 171.965 41.924C171.424 41.924 170.995 42.1107 170.677 42.484C170.369 42.8573 170.215 43.366 170.215 44.01V48H168.801V43.674C168.801 43.0673 168.694 42.624 168.479 42.344C168.274 42.064 167.938 41.924 167.471 41.924C166.93 41.924 166.501 42.1107 166.183 42.484C165.866 42.8573 165.707 43.366 165.707 44.01V48H164.307V42.932C164.307 42.1947 164.27 41.532 164.195 40.944H165.511L165.637 42.12C165.843 41.6907 166.137 41.3593 166.519 41.126C166.902 40.8927 167.35 40.776 167.863 40.776C168.955 40.776 169.669 41.2287 170.005 42.134C170.22 41.714 170.533 41.3827 170.943 41.14C171.363 40.8973 171.835 40.776 172.357 40.776Z" fill="#434976"/>
</g>
<defs>
<clipPath id="clip0_43_88">
<rect width="246" height="50" fill="white"/>
</clipPath>
</defs>
</svg>
